<?xml version="1.0" encoding="iso-8859-1"?>
<!-- Generator: Adobe Illustrator 18.1.1, SVG Export Plug-In . SVG Version: 6.00 Build 0)  -->
<svg version="1.1" id="Capa_1" xmlns="http://www.w3.org/2000/svg" xmlns:xlink="http://www.w3.org/1999/xlink" x="0px" y="0px"
	 viewBox="0 0 34.752 34.752" style="enable-background:new 0 0 34.752 34.752;" xml:space="preserve">
<g>
	<g id="b142_fork">
		<path d="M14.548,0.619l-0.473,8.949H12.02l-0.176-9.134h-1.427l-0.215,9.134h-1.75L7.723,0.617L6.242,0.619v9.258l0.011,0.002
			c0.095,2.953,1.553,3.242,3.527,4.082H9.743v6.188l0,0v13.412c1.696,1.697,3.008,0,3.008,0V19.902l0,0v-5.938
			c0,0,3.236-1.133,3.329-4.088h0.013V0.619H14.548z"/>
		<path d="M24.419,0h-2.094h-2.099v34.752h4.192V16.383h3.635C30.139,7.252,24.419,0,24.419,0z"/>
	</g>
	<g id="Capa_1_213_">
	</g>
</g>
<g>
</g>
<g>
</g>
<g>
</g>
<g>
</g>
<g>
</g>
<g>
</g>
<g>
</g>
<g>
</g>
<g>
</g>
<g>
</g>
<g>
</g>
<g>
</g>
<g>
</g>
<g>
</g>
<g>
</g>
</svg>
