<?xml version="1.0" encoding="iso-8859-1"?>
<!-- Generator: Adobe Illustrator 16.0.0, SVG Export Plug-In . SVG Version: 6.00 Build 0)  -->
<!DOCTYPE svg PUBLIC "-//W3C//DTD SVG 1.1//EN" "http://www.w3.org/Graphics/SVG/1.1/DTD/svg11.dtd">
<svg version="1.1" id="Capa_1" xmlns="http://www.w3.org/2000/svg" xmlns:xlink="http://www.w3.org/1999/xlink" x="0px" y="0px"
	 width="497.25px" height="497.25px" viewBox="0 0 497.25 497.25" style="enable-background:new 0 0 497.25 497.25;"
	 xml:space="preserve">
<g>
	<g>
		<path d="M468.562,267.75c15.3,0,28.688-13.388,28.688-28.688s-13.388-28.688-28.688-28.688h-137.7
			C353.812,105.188,348.075,0,286.875,0c-55.462,0-21.037,82.237-49.725,139.612c-28.688,57.375-93.712,70.763-93.712,70.763h-9.562
			V497.25H321.3h70.763c15.3,0,28.688-13.388,28.688-28.688s-13.388-28.688-28.688-28.688h-28.688V420.75h66.938
			c15.3,0,28.688-13.388,28.688-28.688s-13.388-28.688-28.688-28.688H382.5V344.25h66.938c15.3,0,28.688-13.388,28.688-28.688
			s-13.388-28.688-28.688-28.688h-47.812V267.75H468.562z"/>
		<path d="M0,248.625V459c0,21.037,17.212,38.25,38.25,38.25h76.5V210.375h-76.5C17.212,210.375,0,227.587,0,248.625z
			 M57.375,420.75c11.475,0,19.125,7.65,19.125,19.125S68.85,459,57.375,459s-19.125-7.65-19.125-19.125S45.9,420.75,57.375,420.75z
			"/>
	</g>
</g>
<g>
</g>
<g>
</g>
<g>
</g>
<g>
</g>
<g>
</g>
<g>
</g>
<g>
</g>
<g>
</g>
<g>
</g>
<g>
</g>
<g>
</g>
<g>
</g>
<g>
</g>
<g>
</g>
<g>
</g>
</svg>
