<?xml version="1.0" encoding="iso-8859-1"?>
<!-- Generator: Adobe Illustrator 16.0.0, SVG Export Plug-In . SVG Version: 6.00 Build 0)  -->
<!DOCTYPE svg PUBLIC "-//W3C//DTD SVG 1.1//EN" "http://www.w3.org/Graphics/SVG/1.1/DTD/svg11.dtd">
<svg version="1.1" id="Capa_1" xmlns="http://www.w3.org/2000/svg" xmlns:xlink="http://www.w3.org/1999/xlink" x="0px" y="0px"
	 width="554.625px" height="554.625px" viewBox="0 0 554.625 554.625" style="enable-background:new 0 0 554.625 554.625;"
	 xml:space="preserve">
<g>
	<g>
		<path d="M181.688,86.062c0-36.337,30.6-66.938,66.938-66.938c36.338,0,66.938,30.6,66.938,66.938v53.55
			c11.475-15.3,19.125-34.425,19.125-53.55C334.688,38.25,296.438,0,248.625,0s-86.062,38.25-86.062,86.062
			c0,21.038,7.65,40.163,19.125,53.55V86.062z"/>
		<path d="M478.125,229.5c-11.475,0-21.037,3.825-28.688,9.562l0,0c0-26.775-21.037-47.812-47.812-47.812
			c-11.475,0-22.95,3.825-32.513,11.475c-7.649-19.125-24.862-30.6-43.987-30.6c-11.475,0-21.037,3.825-28.688,9.562V86.062
			c0-26.775-21.038-47.812-47.812-47.812s-47.812,21.038-47.812,47.812v170.212c-38.25-34.425-80.325-61.2-107.1-34.425
			c-38.25,38.25,42.075,112.837,103.275,225.675c43.988,78.412,105.188,107.1,166.388,107.1
			c89.888,0,162.562-72.675,162.562-162.562v-114.75C525.938,250.538,504.9,229.5,478.125,229.5z M506.812,319.388v72.675
			c0,74.588-65.025,143.438-143.438,143.438c-72.675,0-114.75-40.162-149.175-95.625c-74.588-126.225-128.138-183.6-107.1-204.638
			c21.038-21.037,72.675,24.863,112.837,66.938V86.062c0-15.3,13.388-28.688,28.688-28.688s28.688,13.388,28.688,28.688v200.812
			h19.125v-66.938c0-15.3,13.388-28.688,28.688-28.688s28.688,13.388,28.688,28.688v47.812h19.125v-28.688
			c0-15.3,13.388-28.688,28.688-28.688s28.688,13.388,28.688,28.688v47.812h19.125v-9.562c0-15.3,13.388-28.688,28.688-28.688
			s28.688,13.388,28.688,28.688V319.388z"/>
		<path d="M47.812,239.062c0-36.337,30.6-66.938,66.938-66.938c26.775,0,49.725,15.3,61.2,38.25
			c1.912,1.913,3.825,1.913,5.737,3.825v-30.6c-15.3-19.125-40.163-32.513-66.938-32.513C66.938,153,28.688,191.25,28.688,239.062
			c0,40.162,26.775,72.675,63.112,82.237c-3.825-9.562-9.562-17.212-11.475-26.774C61.2,284.963,47.812,263.925,47.812,239.062z"/>
	</g>
</g>
<g>
</g>
<g>
</g>
<g>
</g>
<g>
</g>
<g>
</g>
<g>
</g>
<g>
</g>
<g>
</g>
<g>
</g>
<g>
</g>
<g>
</g>
<g>
</g>
<g>
</g>
<g>
</g>
<g>
</g>
</svg>
