<?xml version="1.0" encoding="iso-8859-1"?>
<!-- Generator: Adobe Illustrator 16.0.0, SVG Export Plug-In . SVG Version: 6.00 Build 0)  -->
<!DOCTYPE svg PUBLIC "-//W3C//DTD SVG 1.1//EN" "http://www.w3.org/Graphics/SVG/1.1/DTD/svg11.dtd">
<svg version="1.1" id="Capa_1" xmlns="http://www.w3.org/2000/svg" xmlns:xlink="http://www.w3.org/1999/xlink" x="0px" y="0px"
	 width="497.25px" height="497.25px" viewBox="0 0 497.25 497.25" style="enable-background:new 0 0 497.25 497.25;"
	 xml:space="preserve">
<g>
	<g>
		<path d="M0,38.25v210.375c0,21.037,17.212,38.25,38.25,38.25h76.5V0h-76.5C17.212,0,0,17.212,0,38.25z M57.375,38.25
			C68.85,38.25,76.5,45.9,76.5,57.375S68.85,76.5,57.375,76.5S38.25,68.85,38.25,57.375S45.9,38.25,57.375,38.25z"/>
		<path d="M468.562,229.5h-66.938v-19.125h47.812c15.3,0,28.688-13.388,28.688-28.688S464.737,153,449.438,153H382.5v-19.125h47.812
			c15.3,0,28.688-13.388,28.688-28.688S445.612,76.5,430.312,76.5h-66.938V57.375h28.688c15.3,0,28.688-13.388,28.688-28.688
			S407.362,0,392.062,0H321.3H133.875v286.875h9.562c0,0,63.112,13.388,93.712,70.763s-5.737,139.612,49.725,139.612
			c61.2,0,66.938-105.188,43.987-210.375h137.7c15.3,0,28.688-13.388,28.688-28.688S483.862,229.5,468.562,229.5z"/>
	</g>
</g>
<g>
</g>
<g>
</g>
<g>
</g>
<g>
</g>
<g>
</g>
<g>
</g>
<g>
</g>
<g>
</g>
<g>
</g>
<g>
</g>
<g>
</g>
<g>
</g>
<g>
</g>
<g>
</g>
<g>
</g>
</svg>
